<svg data-v-29081953="" xmlns="http://www.w3.org/2000/svg" viewBox="0 0 300 300"><!----><defs data-v-29081953=""><linearGradient data-v-29081953="" gradientTransform="rotate(25)" id="2b87d514-0c70-40b9-a542-9c92bcf851db" x1="0%" y1="0%" x2="100%" y2="0%"><stop data-v-29081953="" offset="0%" stop-color="#0076DD" stop-opacity="1"></stop><stop data-v-29081953="" offset="100%" stop-color="#E600E9" stop-opacity="1"></stop></linearGradient></defs><rect data-v-29081953="" fill="url(#2b87d514-0c70-40b9-a542-9c92bcf851db)" x="0" y="0" width="300px" height="300px" class="logo-background-square"></rect><defs data-v-29081953=""><!----></defs><g data-v-29081953="" id="36825b5d-0e33-4824-8070-2adb6410c016" fill="#ffffff" transform="matrix(3.460264609470374,0,0,3.460264609470374,117.12567378822334,120.55314903139815)"><path d="M5.73 4.70L5.73 5.38L3.86 5.38L3.86 4.66L3.86 4.66Q3.86 4.55 3.79 4.47L3.79 4.47L3.79 4.47Q3.71 4.38 3.60 4.38L3.60 4.38L2.83 4.38L2.83 4.38Q2.72 4.38 2.64 4.47L2.64 4.47L2.64 4.47Q2.56 4.55 2.56 4.66L2.56 4.66L2.56 6.27L2.56 6.27Q2.56 6.38 2.64 6.47L2.64 6.47L2.64 6.47Q2.72 6.55 2.83 6.55L2.83 6.55L4.09 6.55L4.09 6.55Q5.82 6.58 5.82 8.40L5.82 8.40L5.82 10.35L5.82 10.35Q5.82 12.19 4.09 12.19L4.09 12.19L2.44 12.19L2.44 12.19Q0.70 12.19 0.70 10.35L0.70 10.35L0.70 9.41L2.56 9.41L2.56 10.42L2.56 10.42Q2.56 10.53 2.64 10.61L2.64 10.61L2.64 10.61Q2.72 10.70 2.83 10.70L2.83 10.70L3.70 10.70L3.70 10.70Q3.81 10.70 3.89 10.61L3.89 10.61L3.89 10.61Q3.96 10.53 3.96 10.42L3.96 10.42L3.96 8.64L3.96 8.64Q3.96 8.53 3.89 8.44L3.89 8.44L3.89 8.44Q3.81 8.36 3.70 8.36L3.70 8.36L2.44 8.36L2.44 8.36Q0.70 8.36 0.70 6.51L0.70 6.51L0.70 4.70L0.70 4.70Q0.70 2.86 2.44 2.86L2.44 2.86L3.99 2.86L3.99 2.86Q5.73 2.86 5.73 4.70L5.73 4.70ZM9.53 10.98L9.53 10.98L10.09 10.98L10.09 12.19L8.78 12.19L8.78 12.19Q7.04 12.19 7.04 10.35L7.04 10.35L7.04 3.74L8.92 3.74L8.92 5.22L10.09 5.22L10.09 6.58L8.92 6.58L8.92 10.30L8.92 10.30Q8.92 10.70 9.07 10.84L9.07 10.84L9.07 10.84Q9.23 10.98 9.53 10.98ZM14.55 5.73L14.55 5.22L16.13 5.22L16.13 12.05L14.55 12.05L14.55 11.55L14.55 11.55Q14.11 12.19 13.10 12.19L13.10 12.19L12.81 12.19L12.81 12.19Q11.07 12.19 11.07 10.35L11.07 10.35L11.07 6.93L11.07 6.93Q11.07 5.08 12.81 5.08L12.81 5.08L13.10 5.08L13.10 5.08Q14.11 5.08 14.55 5.73L14.55 5.73ZM14.25 10.57L14.25 10.57L14.25 6.71L14.25 6.71Q14.25 6.59 14.17 6.51L14.17 6.51L14.17 6.51Q14.10 6.43 13.99 6.43L13.99 6.43L13.22 6.43L13.22 6.43Q13.10 6.43 13.03 6.51L13.03 6.51L13.03 6.51Q12.95 6.59 12.95 6.71L12.95 6.71L12.95 10.57L12.95 10.57Q12.95 10.68 13.03 10.77L13.03 10.77L13.03 10.77Q13.10 10.85 13.22 10.85L13.22 10.85L13.99 10.85L13.99 10.85Q14.10 10.85 14.17 10.77L14.17 10.77L14.17 10.77Q14.25 10.68 14.25 10.57ZM20.58 10.12L20.58 5.22L22.46 5.22L22.46 12.57L22.46 12.57Q22.46 14.42 20.72 14.42L20.72 14.42L19.32 14.42L19.32 14.42Q17.58 14.42 17.58 12.57L17.58 12.57L17.58 12.35L19.40 12.35L19.40 12.80L19.40 12.80Q19.40 12.91 19.48 12.99L19.48 12.99L19.48 12.99Q19.56 13.08 19.67 13.08L19.67 13.08L20.31 13.08L20.31 13.08Q20.43 13.08 20.50 12.99L20.50 12.99L20.50 12.99Q20.58 12.91 20.58 12.80L20.58 12.80L20.58 11.41L20.58 11.41Q20.16 11.75 19.43 11.75L19.43 11.75L19.14 11.75L19.14 11.75Q17.40 11.75 17.40 9.90L17.40 9.90L17.40 5.22L19.28 5.22L19.28 10.12L19.28 10.12Q19.28 10.23 19.35 10.32L19.35 10.32L19.35 10.32Q19.43 10.40 19.54 10.40L19.54 10.40L20.31 10.40L20.31 10.40Q20.43 10.40 20.50 10.32L20.50 10.32L20.50 10.32Q20.58 10.23 20.58 10.12L20.58 10.12ZM25.76 3.00L25.76 10.40L27.90 10.40L27.90 12.05L23.80 12.05L23.80 3.00L25.76 3.00ZM30.67 4.37L30.67 4.37L30.67 4.37Q30.37 4.66 29.95 4.66L29.95 4.66L29.95 4.66Q29.53 4.66 29.22 4.36L29.22 4.36L29.22 4.36Q28.91 4.06 28.91 3.63L28.91 3.63L28.91 3.63Q28.91 3.21 29.22 2.90L29.22 2.90L29.22 2.90Q29.53 2.60 29.95 2.60L29.95 2.60L29.95 2.60Q30.37 2.60 30.67 2.90L30.67 2.90L30.67 2.90Q30.97 3.21 30.97 3.64L30.97 3.64L30.97 3.64Q30.97 4.07 30.67 4.37ZM30.88 12.05L29.01 12.05L29.01 5.22L30.88 5.22L30.88 12.05ZM34.69 10.98L34.69 10.98L35.25 10.98L35.25 12.19L33.94 12.19L33.94 12.19Q32.20 12.19 32.20 10.35L32.20 10.35L32.20 3.74L34.08 3.74L34.08 5.22L35.25 5.22L35.25 6.58L34.08 6.58L34.08 10.30L34.08 10.30Q34.08 10.70 34.23 10.84L34.23 10.84L34.23 10.84Q34.38 10.98 34.69 10.98ZM37.97 5.08L39.55 5.08L39.55 5.08Q41.29 5.08 41.29 6.93L41.29 6.93L41.29 9.14L38.11 9.14L38.11 10.57L38.11 10.57Q38.11 10.68 38.18 10.77L38.18 10.77L38.18 10.77Q38.26 10.85 38.37 10.85L38.37 10.85L39.14 10.85L39.14 10.85Q39.26 10.85 39.33 10.77L39.33 10.77L39.33 10.77Q39.41 10.68 39.41 10.57L39.41 10.57L39.41 9.81L41.29 9.81L41.29 10.35L41.29 10.35Q41.29 12.19 39.55 12.19L39.55 12.19L37.97 12.19L37.97 12.19Q36.23 12.19 36.23 10.35L36.23 10.35L36.23 6.93L36.23 6.93Q36.23 5.08 37.97 5.08L37.97 5.08ZM38.11 6.65L38.11 7.91L39.41 7.91L39.41 6.65L39.41 6.65Q39.41 6.54 39.33 6.45L39.33 6.45L39.33 6.45Q39.26 6.37 39.14 6.37L39.14 6.37L38.37 6.37L38.37 6.37Q38.26 6.37 38.18 6.45L38.18 6.45L38.18 6.45Q38.11 6.54 38.11 6.65L38.11 6.65Z"></path></g><defs data-v-29081953=""><!----></defs><g data-v-29081953="" id="91029b79-d5d2-45b6-898f-7eb5ca5a75c5" stroke="none" fill="#ffffff" transform="matrix(0.9214820361000908,0,0,0.9214820361000908,30.17670460349224,103.41911717233795)"><path d="M46.769 20.261c.547 0 1.095.181 1.513.542l12.837 11.105c.306.264.59.39.827.39.413 0 .686-.381.686-1.082v-2.679a2 2 0 0 1 2-2h4.995a2 2 0 0 1 2 2v10.46c0 1.104.677 2.586 1.513 3.309l6.235 5.394c.836.723.617 1.309-.487 1.309h-5.261c-1.104 0-2 .793-2 1.771V78.84a2 2 0 0 1-2 2H23.912a2 2 0 0 1-2-2V51.01a2 2 0 0 0-2-2h-5.261c-1.104 0-1.323-.586-.487-1.309l31.093-26.897a2.304 2.304 0 0 1 1.512-.543m0-3a5.31 5.31 0 0 0-3.475 1.272L12.201 45.432c-2.044 1.767-1.537 3.692-1.333 4.24.204.549 1.08 2.337 3.783 2.337h4.261v26.83c0 2.757 2.243 5 5 5h45.715c2.757 0 5-2.243 5-5V52.009h4.261c2.703 0 3.579-1.788 3.783-2.337.204-.548.711-2.474-1.334-4.241l-6.234-5.394c-.19-.18-.464-.779-.476-1.046V28.537c0-2.757-2.243-5-5-5h-4.995a5.01 5.01 0 0 0-4.723 3.357l-9.664-8.36a5.31 5.31 0 0 0-3.476-1.273z"></path></g><!----></svg>